<svg width="119" height="24" viewBox="0 0 119 24" fill="none" xmlns="http://www.w3.org/2000/svg">
    <path d="M7.5 6C5.81522 6 4.25272 6.55706 3.00272 7.52174V1H0V14.0027H0.0271739C0.271739 17.9158 3.53261 21 7.5 21C11.644 21 15 17.644 15 13.5C15 9.35598 11.644 6 7.5 6ZM7.5 17.9973C5.01359 17.9973 3.00272 15.9728 3.00272 13.5C3.00272 11.0272 5.02717 9.00272 7.5 9.00272C9.97283 9.00272 11.9973 11.0136 11.9973 13.5C11.9973 15.9864 9.97283 17.9973 7.5 17.9973Z" fill="#232429"/>
    <path d="M34.9728 12.9973C34.7283 9.08424 31.4674 6 27.5 6C23.356 6 20 9.35598 20 13.5C20 17.644 23.356 21 27.5 21C29.1848 21 30.7473 20.4429 31.9973 19.4783V21H35V12.9973H34.9728ZM27.5136 17.9973C25.0272 17.9973 23.0163 15.9728 23.0163 13.5C23.0163 11.0272 25.0408 9.00272 27.5136 9.00272C29.9864 9.00272 32.0109 11.0272 32.0109 13.5C32.0109 15.9728 29.9864 17.9973 27.5136 17.9973Z" fill="#232429"/>
    <path d="M56.0056 6.02717V9.02989C55.8426 9.0163 55.6796 9.00272 55.5029 9.00272C53.0165 9.00272 51.0056 11.0272 51.0056 13.5V21H48.0029V6H51.0056V7.52174C52.2556 6.55707 53.8181 6 55.5029 6C55.6796 6 55.8426 6.01359 56.0056 6.02717Z" fill="#232429"/>
    <path d="M43.0027 6H40V21H43.0027V6Z" fill="#232429"/>
    <path d="M43.0027 1H40V4.00272H43.0027V1Z" fill="#232429"/>
    <path d="M64.2039 10.117C63.6492 10.117 63.1249 10.0433 62.6309 9.896C62.1455 9.74 61.7469 9.52767 61.4349 9.259L61.7989 8.518C62.1195 8.778 62.4792 8.97733 62.8779 9.116C63.2852 9.246 63.7272 9.311 64.2039 9.311C64.8452 9.311 65.3089 9.21133 65.5949 9.012C65.8809 8.81267 66.0239 8.531 66.0239 8.167C66.0239 7.81167 65.9025 7.543 65.6599 7.361C65.4172 7.17033 65.0619 7.075 64.5939 7.075H63.0599V6.295H64.4639C64.8799 6.295 65.2049 6.204 65.4389 6.022C65.6815 5.83133 65.8029 5.57133 65.8029 5.242C65.8029 4.904 65.6729 4.63967 65.4129 4.449C65.1529 4.24967 64.7455 4.15 64.1909 4.15C63.7489 4.15 63.3372 4.21067 62.9559 4.332C62.5832 4.44467 62.2279 4.62667 61.8899 4.878L61.5389 4.163C61.8942 3.88567 62.3059 3.682 62.7739 3.552C63.2419 3.422 63.7489 3.357 64.2949 3.357C65.1095 3.357 65.7292 3.51733 66.1539 3.838C66.5785 4.15 66.7909 4.59633 66.7909 5.177C66.7909 5.58433 66.6522 5.93533 66.3749 6.23C66.0975 6.516 65.7292 6.685 65.2699 6.737V6.581C65.7899 6.59833 66.2102 6.75433 66.5309 7.049C66.8515 7.34367 67.0119 7.72933 67.0119 8.206C67.0119 8.78667 66.7735 9.25033 66.2969 9.597C65.8289 9.94367 65.1312 10.117 64.2039 10.117ZM68.6474 10V3.474H69.6094V9.025H69.2584L73.4184 3.474H74.3024V10H73.3534V4.436H73.7044L69.5444 10H68.6474ZM76.3789 10V3.474H77.2629L79.7069 7.855L82.1639 3.474H83.0479V10H82.1119V4.644H82.3849L79.9799 8.947H79.4469L77.0289 4.631H77.3149V10H76.3789ZM87.8559 10.117C87.2319 10.117 86.6859 9.98267 86.2179 9.714C85.7586 9.43667 85.4033 9.04667 85.1519 8.544C84.9006 8.03267 84.7749 7.43033 84.7749 6.737C84.7749 6.035 84.9006 5.43267 85.1519 4.93C85.4033 4.42733 85.7586 4.04167 86.2179 3.773C86.6859 3.49567 87.2319 3.357 87.8559 3.357C88.4886 3.357 89.0346 3.49567 89.4939 3.773C89.9619 4.04167 90.3216 4.42733 90.5729 4.93C90.8329 5.43267 90.9629 6.035 90.9629 6.737C90.9629 7.43033 90.8329 8.03267 90.5729 8.544C90.3216 9.04667 89.9619 9.43667 89.4939 9.714C89.0346 9.98267 88.4886 10.117 87.8559 10.117ZM87.8559 9.259C88.4799 9.259 88.9739 9.04667 89.3379 8.622C89.7019 8.18867 89.8839 7.56033 89.8839 6.737C89.8839 5.905 89.6976 5.27667 89.3249 4.852C88.9609 4.41867 88.4713 4.202 87.8559 4.202C87.2406 4.202 86.7509 4.41867 86.3869 4.852C86.0229 5.27667 85.8409 5.905 85.8409 6.737C85.8409 7.56033 86.0229 8.18867 86.3869 8.622C86.7509 9.04667 87.2406 9.259 87.8559 9.259ZM92.6796 10V3.474H95.8256C96.5796 3.474 97.143 3.62133 97.5156 3.916C97.897 4.202 98.0876 4.62667 98.0876 5.19C98.0876 5.606 97.9403 5.957 97.6456 6.243C97.3596 6.52033 96.987 6.685 96.5276 6.737V6.581C97.065 6.59833 97.494 6.75433 97.8146 7.049C98.1353 7.34367 98.2956 7.725 98.2956 8.193C98.2956 8.75633 98.0876 9.19833 97.6716 9.519C97.2643 9.83967 96.6836 10 95.9296 10H92.6796ZM93.6806 9.285H95.8776C96.337 9.285 96.688 9.18967 96.9306 8.999C97.182 8.79967 97.3076 8.518 97.3076 8.154C97.3076 7.79 97.182 7.51267 96.9306 7.322C96.688 7.13133 96.337 7.036 95.8776 7.036H93.6806V9.285ZM93.6806 6.321H95.7606C96.1853 6.321 96.5146 6.22567 96.7486 6.035C96.9826 5.84433 97.0996 5.58 97.0996 5.242C97.0996 4.904 96.9826 4.644 96.7486 4.462C96.5146 4.27133 96.1853 4.176 95.7606 4.176H93.6806V6.321ZM99.9807 10V3.474H101.034V10H99.9807ZM99.8507 1.992V0.809H101.151V1.992H99.8507ZM62.0459 21V14.474H63.0989V17.217H64.3339L66.4919 14.474H67.6489L65.1789 17.633L64.8929 17.308C65.1442 17.334 65.3609 17.3947 65.5429 17.49C65.7249 17.5853 65.8982 17.7283 66.0629 17.919C66.2362 18.1097 66.4225 18.374 66.6219 18.712L67.9739 21H66.8429L65.6469 18.972C65.4995 18.7207 65.3565 18.53 65.2179 18.4C65.0879 18.27 64.9362 18.179 64.7629 18.127C64.5982 18.075 64.3902 18.049 64.1389 18.049H63.0989V21H62.0459ZM71.771 21.117C71.147 21.117 70.601 20.9827 70.133 20.714C69.6736 20.4367 69.3183 20.0467 69.067 19.544C68.8156 19.0327 68.69 18.4303 68.69 17.737C68.69 17.035 68.8156 16.4327 69.067 15.93C69.3183 15.4273 69.6736 15.0417 70.133 14.773C70.601 14.4957 71.147 14.357 71.771 14.357C72.4036 14.357 72.9496 14.4957 73.409 14.773C73.877 15.0417 74.2366 15.4273 74.488 15.93C74.748 16.4327 74.878 17.035 74.878 17.737C74.878 18.4303 74.748 19.0327 74.488 19.544C74.2366 20.0467 73.877 20.4367 73.409 20.714C72.9496 20.9827 72.4036 21.117 71.771 21.117ZM71.771 20.259C72.395 20.259 72.889 20.0467 73.253 19.622C73.617 19.1887 73.799 18.5603 73.799 17.737C73.799 16.905 73.6126 16.2767 73.24 15.852C72.876 15.4187 72.3863 15.202 71.771 15.202C71.1556 15.202 70.666 15.4187 70.302 15.852C69.938 16.2767 69.756 16.905 69.756 17.737C69.756 18.5603 69.938 19.1887 70.302 19.622C70.666 20.0467 71.1556 20.259 71.771 20.259ZM76.5947 21V14.474H77.6477V17.204H81.2357V14.474H82.2887V21H81.2357V18.049H77.6477V21H76.5947ZM84.3642 21V14.474H87.5102C88.2642 14.474 88.8276 14.6213 89.2002 14.916C89.5816 15.202 89.7722 15.6267 89.7722 16.19C89.7722 16.606 89.6249 16.957 89.3302 17.243C89.0442 17.5203 88.6716 17.685 88.2122 17.737V17.581C88.7496 17.5983 89.1786 17.7543 89.4992 18.049C89.8199 18.3437 89.9802 18.725 89.9802 19.193C89.9802 19.7563 89.7722 20.1983 89.3562 20.519C88.9489 20.8397 88.3682 21 87.6142 21H84.3642ZM85.3652 20.285H87.5622C88.0216 20.285 88.3726 20.1897 88.6152 19.999C88.8666 19.7997 88.9922 19.518 88.9922 19.154C88.9922 18.79 88.8666 18.5127 88.6152 18.322C88.3726 18.1313 88.0216 18.036 87.5622 18.036H85.3652V20.285ZM85.3652 17.321H87.4452C87.8699 17.321 88.1992 17.2257 88.4332 17.035C88.6672 16.8443 88.7842 16.58 88.7842 16.242C88.7842 15.904 88.6672 15.644 88.4332 15.462C88.1992 15.2713 87.8699 15.176 87.4452 15.176H85.3652V17.321ZM94.5642 21.117C93.5416 21.117 92.7356 20.8223 92.1462 20.233C91.5569 19.635 91.2622 18.8073 91.2622 17.75C91.2622 17.0653 91.3922 16.4717 91.6522 15.969C91.9122 15.4577 92.2762 15.0633 92.7442 14.786C93.2122 14.5 93.7496 14.357 94.3562 14.357C94.9542 14.357 95.4569 14.4827 95.8642 14.734C96.2716 14.9853 96.5836 15.345 96.8002 15.813C97.0169 16.2723 97.1252 16.8183 97.1252 17.451V17.841H92.0682V17.178H96.4362L96.2152 17.347C96.2152 16.6537 96.0592 16.112 95.7472 15.722C95.4352 15.332 94.9716 15.137 94.3562 15.137C93.7062 15.137 93.1992 15.3667 92.8352 15.826C92.4712 16.2767 92.2892 16.8877 92.2892 17.659V17.776C92.2892 18.5907 92.4886 19.2103 92.8872 19.635C93.2946 20.051 93.8622 20.259 94.5902 20.259C94.9802 20.259 95.3442 20.2027 95.6822 20.09C96.0289 19.9687 96.3582 19.7737 96.6702 19.505L97.0342 20.246C96.7482 20.5233 96.3842 20.74 95.9422 20.896C95.5089 21.0433 95.0496 21.117 94.5642 21.117ZM98.8635 23.808V15.982C98.8635 15.7393 98.8505 15.4923 98.8245 15.241C98.8072 14.981 98.7855 14.7253 98.7595 14.474H99.7735L99.9165 16.021H99.7605C99.8992 15.5097 100.181 15.1067 100.605 14.812C101.03 14.5087 101.537 14.357 102.126 14.357C102.716 14.357 103.223 14.4913 103.647 14.76C104.081 15.0287 104.419 15.4143 104.661 15.917C104.904 16.4197 105.025 17.0263 105.025 17.737C105.025 18.439 104.904 19.0413 104.661 19.544C104.427 20.0467 104.094 20.4367 103.66 20.714C103.227 20.9827 102.716 21.117 102.126 21.117C101.546 21.117 101.043 20.9697 100.618 20.675C100.194 20.3803 99.9122 19.9773 99.7735 19.466H99.9165V23.808H98.8635ZM101.918 20.259C102.542 20.259 103.036 20.0467 103.4 19.622C103.773 19.1887 103.959 18.5603 103.959 17.737C103.959 16.905 103.773 16.2767 103.4 15.852C103.036 15.4187 102.542 15.202 101.918 15.202C101.303 15.202 100.809 15.4187 100.436 15.852C100.072 16.2767 99.8905 16.905 99.8905 17.737C99.8905 18.5603 100.072 19.1887 100.436 19.622C100.809 20.0467 101.303 20.259 101.918 20.259ZM108.137 21V15.319H105.771V14.474H111.569V15.319H109.19V21H108.137ZM112.662 21V14.474H113.624V20.025H113.273L117.433 14.474H118.317V21H117.368V15.436H117.719L113.559 21H112.662Z" fill="black"/>
</svg>
